<?xml version="1.0" encoding="UTF-8"?>
<svg xmlns="http://www.w3.org/2000/svg" xmlns:xlink="http://www.w3.org/1999/xlink" width="150px" height="26px" viewBox="0 0 149 26" version="1.1">
<g id="surface1">
<path style=" stroke:none;fill-rule:nonzero;fill:rgb(30.980392%,27.45098%,89.803922%);fill-opacity:1;" d="M 89.886719 7.351562 C 90.640625 7.035156 92.382812 7.035156 93.078125 7.375 C 93.375 7.519531 94.0625 5.789062 94.054688 4.921875 C 94.046875 3.90625 93.878906 3.296875 93.332031 2.300781 C 93.125 1.929688 93.042969 1.863281 92.886719 1.925781 C 92.742188 1.992188 92.738281 2.011719 92.691406 2.441406 C 92.652344 2.882812 92.546875 3.160156 92.324219 3.417969 C 92.054688 3.730469 91.820312 3.789062 91.527344 3.378906 C 91.414062 3.214844 91.429688 3.304688 91.242188 2.800781 C 91.136719 2.511719 90.96875 1.480469 90.976562 0.992188 C 90.984375 0.496094 90.902344 0.28125 90.695312 0.25 C 90.582031 0.230469 90.535156 0.273438 90.207031 0.671875 C 89.496094 1.535156 88.960938 2.902344 88.824219 4.078125 C 88.671875 5.394531 89.019531 6.335938 89.605469 7.179688 C 89.691406 7.308594 89.714844 7.425781 89.886719 7.351562 Z M 89.886719 7.351562 "/>
<path style=" stroke:none;fill-rule:nonzero;fill:rgb(11.764706%,16.078431%,23.137255%);fill-opacity:1;" d="M 0.382812 4.019531 L 0.382812 20.726562 L 4.316406 20.726562 L 4.316406 4.019531 Z M 0.382812 4.019531 "/>
<path style=" stroke:none;fill-rule:nonzero;fill:rgb(11.764706%,16.078431%,23.137255%);fill-opacity:1;" d="M 9.988281 8.261719 C 9.394531 8.324219 8.003906 8.597656 7.34375 8.78125 L 6.894531 8.902344 L 6.835938 11.722656 C 6.90625 11.707031 7.585938 11.597656 8.113281 11.484375 C 9.363281 11.207031 9.785156 11.148438 10.625 11.144531 C 12.054688 11.121094 12.332031 11.347656 12.332031 12.5 L 12.332031 13.011719 L 10.960938 13.011719 C 8.542969 13.011719 7.597656 13.277344 6.660156 14.222656 C 5.894531 15.007812 5.648438 15.675781 5.648438 17.042969 C 5.648438 18.089844 5.753906 18.597656 6.09375 19.289062 C 6.628906 20.351562 7.484375 20.863281 8.890625 20.941406 C 10.042969 21.007812 11.078125 20.6875 12.007812 19.980469 C 12.222656 19.8125 12.414062 19.683594 12.417969 19.695312 C 12.425781 19.707031 12.519531 19.9375 12.621094 20.21875 L 12.8125 20.726562 L 16.273438 20.726562 L 16.25 16.070312 C 16.234375 11.496094 16.226562 11.410156 16.105469 10.929688 C 15.71875 9.453125 14.785156 8.636719 13.164062 8.339844 C 12.539062 8.226562 10.71875 8.179688 9.988281 8.261719 Z M 12.332031 16.34375 C 12.332031 17.472656 12.316406 17.769531 12.25 17.820312 C 12.09375 17.953125 11.203125 18.238281 10.855469 18.273438 C 10.429688 18.316406 10.144531 18.234375 9.875 17.988281 C 9.613281 17.761719 9.53125 17.398438 9.566406 16.601562 C 9.59375 15.800781 9.78125 15.4375 10.273438 15.175781 C 10.527344 15.042969 11.1875 14.9375 11.800781 14.933594 L 12.332031 14.925781 Z M 12.332031 16.34375 "/>
<path style=" stroke:none;fill-rule:nonzero;fill:rgb(11.764706%,16.078431%,23.137255%);fill-opacity:1;" d="M 17.847656 13.34375 C 17.863281 17.863281 17.871094 18.292969 17.96875 18.609375 C 18.230469 19.480469 18.761719 20.207031 19.386719 20.519531 C 19.964844 20.816406 20.484375 20.917969 21.445312 20.917969 C 22.246094 20.925781 22.355469 20.90625 22.804688 20.761719 C 23.4375 20.554688 24.222656 20.140625 24.664062 19.789062 C 24.847656 19.636719 25.015625 19.507812 25.023438 19.507812 C 25.035156 19.507812 25.15625 19.78125 25.292969 20.117188 L 25.542969 20.726562 L 28.824219 20.726562 L 28.824219 8.429688 L 24.890625 8.429688 L 24.878906 12.820312 L 24.859375 17.210938 L 24.542969 17.367188 C 23.886719 17.699219 23.339844 17.855469 22.792969 17.855469 C 22.226562 17.855469 22.046875 17.769531 21.867188 17.414062 C 21.769531 17.234375 21.765625 16.894531 21.765625 12.820312 L 21.765625 8.429688 L 19.796875 9.226562 L 17.824219 8.429688 Z M 17.847656 13.34375 "/>
<path style=" stroke:none;fill-rule:nonzero;fill:rgb(11.764706%,16.078431%,23.137255%);fill-opacity:1;" d="M 37.328125 8.28125 C 36.457031 8.453125 35.449219 8.875 34.65625 9.421875 C 34.472656 9.542969 34.308594 9.644531 34.296875 9.644531 C 34.285156 9.644531 33.777344 8.429688 33.777344 8.429688 L 30.445312 8.429688 L 30.445312 20.726562 L 34.378906 20.726562 L 34.40625 12.007812 L 35.054688 11.730469 C 36.363281 11.167969 37.328125 11.132812 37.699219 11.636719 C 37.820312 11.800781 37.820312 11.839844 37.839844 16.265625 L 37.851562 20.726562 L 41.789062 20.726562 L 41.773438 15.867188 C 41.75 11.085938 41.75 11.003906 41.621094 10.558594 C 41.292969 9.355469 40.648438 8.671875 39.585938 8.371094 C 39.011719 8.207031 37.925781 8.167969 37.328125 8.28125 Z M 37.328125 8.28125 "/>
<path style=" stroke:none;fill-rule:nonzero;fill:rgb(11.764706%,16.078431%,23.137255%);fill-opacity:1;" d="M 47.617188 8.28125 C 46.25 8.46875 45.347656 8.886719 44.523438 9.710938 C 43.363281 10.859375 42.824219 12.449219 42.824219 14.699219 C 42.824219 17.269531 43.566406 19.160156 44.914062 20.066406 C 45.753906 20.625 46.632812 20.878906 47.976562 20.9375 C 49.132812 20.996094 50.085938 20.867188 51.347656 20.492188 L 51.738281 20.375 C 51.738281 20.375 51.714844 17.539062 51.683594 17.539062 C 51.65625 17.539062 51.3125 17.613281 50.921875 17.707031 C 48.90625 18.1875 47.824219 18.082031 47.308594 17.367188 C 47.074219 17.042969 46.894531 16.515625 46.808594 15.894531 C 46.71875 15.226562 46.777344 13.3125 46.90625 12.867188 C 47.171875 11.910156 47.617188 11.363281 48.289062 11.183594 C 48.832031 11.035156 49.742188 11.089844 50.722656 11.328125 C 51.140625 11.433594 51.738281 11.574219 51.738281 11.574219 L 51.800781 8.800781 C 51.496094 8.644531 50.433594 8.363281 49.886719 8.277344 C 49.21875 8.179688 48.375 8.179688 47.617188 8.28125 Z M 47.617188 8.28125 "/>
<path style=" stroke:none;fill-rule:nonzero;fill:rgb(11.764706%,16.078431%,23.137255%);fill-opacity:1;" d="M 53.242188 4.019531 L 53.242188 20.726562 L 57.175781 20.726562 L 57.175781 16.382812 C 57.175781 12.914062 57.191406 12.023438 57.25 11.980469 C 57.367188 11.878906 58.140625 11.578125 58.652344 11.4375 C 59.195312 11.28125 59.941406 11.257812 60.230469 11.382812 C 60.636719 11.550781 60.617188 11.324219 60.636719 16.273438 L 60.648438 20.726562 L 64.589844 20.726562 L 64.570312 15.871094 C 64.546875 11.089844 64.546875 11.003906 64.421875 10.558594 C 64.089844 9.375 63.429688 8.660156 62.371094 8.363281 C 61.972656 8.253906 61.753906 8.230469 61.054688 8.230469 C 60.117188 8.230469 59.65625 8.324219 58.808594 8.683594 C 58.351562 8.875 57.382812 9.425781 57.320312 9.535156 C 57.191406 9.734375 57.175781 9.375 57.175781 6.804688 L 57.175781 4.019531 Z M 53.242188 4.019531 "/>
<path style=" stroke:none;fill-rule:nonzero;fill:rgb(11.764706%,16.078431%,23.137255%);fill-opacity:1;" d="M 68.226562 4.019531 L 68.226562 20.480469 L 68.9375 20.578125 C 72.277344 21.03125 74.164062 21.058594 75.777344 20.6875 C 77.605469 20.269531 78.933594 18.773438 79.359375 16.648438 C 79.597656 15.484375 79.585938 13.308594 79.335938 12.078125 C 79.078125 10.800781 78.675781 9.960938 78.011719 9.292969 C 77.238281 8.515625 76.460938 8.238281 75.054688 8.230469 C 74.332031 8.226562 74.160156 8.242188 73.78125 8.359375 C 73.324219 8.503906 72.734375 8.789062 72.382812 9.03125 L 72.160156 9.175781 L 72.160156 4.019531 Z M 74.824219 11.113281 C 75.117188 11.257812 75.304688 11.542969 75.4375 12.042969 C 75.675781 12.941406 75.691406 15.484375 75.464844 16.535156 C 75.253906 17.542969 74.804688 18.191406 74.214844 18.34375 C 73.933594 18.414062 73.273438 18.425781 72.601562 18.371094 L 72.160156 18.332031 L 72.171875 14.875 L 72.191406 11.417969 L 72.636719 11.226562 C 73.234375 10.96875 73.488281 10.921875 74.070312 10.957031 C 74.417969 10.976562 74.640625 11.023438 74.824219 11.113281 Z M 74.824219 11.113281 "/>
<path style=" stroke:none;fill-rule:nonzero;fill:rgb(11.764706%,16.078431%,23.137255%);fill-opacity:1;" d="M 86.152344 8.304688 C 85.609375 8.484375 85.101562 8.859375 84.679688 9.378906 L 84.492188 9.613281 L 84.21875 9.019531 L 83.949219 8.429688 L 80.839844 8.429688 L 80.839844 20.726562 L 84.777344 20.726562 L 84.777344 11.925781 L 84.996094 11.828125 C 85.609375 11.550781 86.535156 11.484375 87.523438 11.648438 C 87.8125 11.695312 88.082031 11.734375 88.121094 11.734375 C 88.171875 11.734375 88.191406 11.359375 88.191406 10.03125 L 88.191406 8.328125 L 87.976562 8.289062 C 87.855469 8.265625 87.472656 8.238281 87.121094 8.21875 C 86.59375 8.203125 86.425781 8.214844 86.152344 8.304688 Z M 86.152344 8.304688 "/>
<path style=" stroke:none;fill-rule:nonzero;fill:rgb(11.764706%,16.078431%,23.137255%);fill-opacity:1;" d="M 89.519531 8.429688 L 89.519531 20.726562 L 93.457031 20.726562 L 93.457031 8.429688 C 93.582031 7.804688 89.652344 7.71875 89.519531 8.429688 Z M 89.519531 8.429688 "/>
<path style=" stroke:none;fill-rule:nonzero;fill:rgb(11.764706%,16.078431%,23.137255%);fill-opacity:1;" d="M 99.492188 8.277344 C 98.828125 8.378906 98.03125 8.644531 97.476562 8.949219 C 96.152344 9.675781 95.34375 10.902344 94.960938 12.761719 C 94.859375 13.265625 94.835938 13.570312 94.835938 14.71875 C 94.828125 15.621094 94.851562 16.210938 94.90625 16.46875 C 95.433594 19.1875 96.871094 20.613281 99.308594 20.820312 C 100.347656 20.910156 101.378906 20.640625 102.085938 19.980469 C 102.761719 19.351562 102.660156 19.3125 102.660156 19.3125 L 102.554688 20.234375 C 102.460938 21.527344 101.910156 21.726562 101.710938 21.890625 C 100.847656 22.585938 99.230469 22.386719 97.121094 22.007812 C 96.734375 21.9375 96.390625 21.878906 96.363281 21.878906 C 96.328125 21.878906 96.304688 25.109375 96.304688 25.109375 L 96.671875 25.179688 C 97.980469 25.4375 98.277344 25.464844 99.441406 25.46875 C 100.75 25.476562 101.242188 25.40625 102.140625 25.082031 C 104.429688 24.257812 105.816406 23.449219 106.296875 19.777344 C 106.4375 18.660156 106.4375 15.367188 106.296875 14.277344 C 106.023438 12.25 105.554688 10.953125 104.730469 9.960938 C 104.050781 9.152344 103.269531 8.660156 102.226562 8.390625 C 101.648438 8.242188 100.117188 8.179688 99.492188 8.277344 Z M 101.402344 11.414062 C 101.886719 11.660156 102.207031 12.269531 102.375 13.253906 C 102.46875 13.777344 102.570312 15.476562 102.570312 16.417969 L 102.570312 17.019531 L 102.214844 17.222656 C 101.367188 17.699219 100.515625 17.894531 99.933594 17.734375 C 99.054688 17.5 98.703125 16.605469 98.703125 14.589844 C 98.699219 13.164062 98.859375 12.378906 99.269531 11.839844 C 99.746094 11.210938 100.648438 11.03125 101.402344 11.414062 Z M 101.402344 11.414062 "/>
<path style=" stroke:none;fill-rule:nonzero;fill:rgb(11.764706%,16.078431%,23.137255%);fill-opacity:1;" d="M 107.804688 4.019531 L 107.804688 20.726562 L 111.738281 20.726562 L 111.738281 16.382812 C 111.738281 12.914062 111.757812 12.023438 111.816406 11.980469 C 111.929688 11.878906 112.707031 11.578125 113.214844 11.4375 C 113.757812 11.28125 114.507812 11.257812 114.796875 11.382812 C 115.199219 11.550781 115.183594 11.324219 115.199219 16.273438 L 115.210938 20.726562 L 119.152344 20.726562 L 119.136719 15.871094 C 119.113281 11.089844 119.113281 11.003906 118.984375 10.558594 C 118.65625 9.375 117.996094 8.660156 116.9375 8.363281 C 116.535156 8.253906 116.316406 8.230469 115.617188 8.230469 C 114.679688 8.230469 114.222656 8.324219 113.371094 8.683594 C 112.914062 8.875 111.949219 9.425781 111.882812 9.535156 C 111.757812 9.734375 111.738281 9.375 111.738281 6.804688 L 111.738281 4.019531 Z M 107.804688 4.019531 "/>
<path style=" stroke:none;fill-rule:nonzero;fill:rgb(11.764706%,16.078431%,23.137255%);fill-opacity:1;" d="M 126.105469 4.722656 C 126.078125 4.722656 122.640625 5.71875 122.617188 5.742188 C 122.59375 5.765625 122.507812 6.324219 122.421875 6.976562 C 122.335938 7.632812 122.253906 8.226562 122.234375 8.292969 C 122.214844 8.429688 120.246094 8.429688 120.246094 8.429688 L 120.246094 10.863281 L 122.207031 10.863281 L 122.230469 14.589844 C 122.246094 17.839844 122.265625 18.367188 122.347656 18.6875 C 122.570312 19.539062 123.085938 20.222656 123.746094 20.546875 C 124.347656 20.851562 124.816406 20.925781 126.03125 20.925781 C 127.15625 20.925781 127.617188 20.863281 128.625 20.558594 L 129.039062 20.433594 C 129.039062 20.433594 129.023438 17.710938 129 17.710938 C 128.972656 17.710938 128.648438 17.773438 128.277344 17.855469 C 127.390625 18.042969 126.875 18.089844 126.570312 18.007812 C 126.128906 17.886719 126.148438 18.035156 126.148438 14.230469 L 126.148438 10.863281 L 128.4375 10.863281 C 128.4375 10.863281 128.773438 8.585938 128.785156 8.527344 C 128.816406 8.433594 126.148438 8.429688 126.148438 8.429688 L 126.148438 6.570312 C 126.148438 5.550781 126.128906 4.714844 126.105469 4.722656 Z M 126.105469 4.722656 "/>
<path style=" stroke:none;fill-rule:nonzero;fill:rgb(11.764706%,16.078431%,23.137255%);fill-opacity:1;" d="M 130.601562 4.019531 L 130.601562 20.726562 L 134.539062 20.726562 L 134.539062 4.019531 Z M 130.601562 4.019531 "/>
<path style=" stroke:none;fill-rule:nonzero;fill:rgb(11.764706%,16.078431%,23.137255%);fill-opacity:1;" d="M 143.5 25.4375 L 148.652344 8.230469 L 144.996094 8.230469 C 144.996094 8.230469 143.757812 13.152344 143.164062 15.230469 C 142.691406 16.878906 142.207031 17.394531 141.734375 17.535156 C 141.226562 17.691406 140.535156 17.714844 140.265625 17.59375 C 139.890625 17.421875 139.90625 17.648438 139.890625 12.691406 L 139.878906 8.230469 L 136.21875 8.230469 L 136.234375 13.09375 C 136.257812 17.882812 136.257812 17.96875 136.375 18.417969 C 136.683594 19.601562 137.292969 20.316406 138.277344 20.613281 C 138.648438 20.722656 138.851562 20.746094 139.503906 20.746094 C 140.375 20.746094 140.644531 20.605469 141.4375 20.246094 C 141.859375 20.054688 139.84375 25.4375 139.84375 25.4375 Z M 143.5 25.4375 "/>
</g>
</svg>
